<svg width="12" height="20" viewBox="0 0 12 20" fill="none" xmlns="http://www.w3.org/2000/svg">
<path d="M3.60195 19.026V11.752H0.817949C0.673406 11.752 0.534784 11.6946 0.432576 11.5924C0.330369 11.4902 0.272949 11.3515 0.272949 11.207V8.33C0.272949 8.18546 0.330369 8.04683 0.432576 7.94463C0.534784 7.84242 0.673406 7.785 0.817949 7.785H3.59095V5C3.52461 4.33955 3.60368 3.67259 3.8226 3.04596C4.04151 2.41932 4.39497 1.84822 4.85814 1.37276C5.32131 0.897292 5.88296 0.529 6.50364 0.293747C7.12433 0.0584938 7.78899 -0.0380147 8.45095 0.011H10.7709C10.9169 0.010714 11.057 0.0678015 11.1613 0.169947C11.2655 0.272092 11.3253 0.411106 11.3279 0.557V2.993C11.3248 3.13864 11.2647 3.27725 11.1606 3.37912C11.0565 3.481 10.9166 3.53803 10.7709 3.538H9.32095C7.75495 3.538 7.45395 4.28 7.45395 5.371V7.784H11.1769C11.2543 7.78144 11.3313 7.79576 11.4026 7.82597C11.4739 7.85619 11.5377 7.90157 11.5897 7.95896C11.6417 8.01635 11.6805 8.08437 11.7035 8.15829C11.7265 8.23221 11.7332 8.31026 11.7229 8.387L11.3859 11.275C11.3691 11.4073 11.3043 11.5288 11.2038 11.6165C11.1034 11.7042 10.9743 11.7521 10.8409 11.751H7.47695V19.025C7.47884 19.1535 7.4549 19.2811 7.40656 19.4002C7.35822 19.5193 7.28646 19.6275 7.19553 19.7183C7.1046 19.8091 6.99635 19.8808 6.87721 19.929C6.75807 19.9772 6.63046 20.001 6.50195 19.999H4.56495C4.43744 19.9994 4.31113 19.9744 4.19339 19.9255C4.07564 19.8765 3.96883 19.8046 3.87918 19.714C3.78953 19.6233 3.71884 19.5157 3.67125 19.3974C3.62365 19.2791 3.60009 19.1535 3.60195 19.026Z" fill="#fff"/>
</svg>
