<svg width="9" height="12" viewBox="0 0 9 12" fill="none" xmlns="http://www.w3.org/2000/svg">
<path d="M0.000173569 10.21V1.79C-0.000307738 1.45759 0.0933589 1.13183 0.270332 0.850447C0.447306 0.569059 0.700349 0.343542 1.00017 0.2C1.35592 0.0319679 1.75171 -0.0327513 2.14244 0.0132176C2.53318 0.0591865 2.90314 0.213995 3.21017 0.460001L8.31017 4.67C8.5008 4.83522 8.65369 5.03948 8.75847 5.26895C8.86325 5.49842 8.91748 5.74774 8.91748 6C8.91748 6.25226 8.86325 6.50158 8.75847 6.73105C8.65369 6.96052 8.5008 7.16478 8.31017 7.33L3.21017 11.54C2.90314 11.786 2.53318 11.9408 2.14244 11.9868C1.75171 12.0328 1.35592 11.968 1.00017 11.8C0.700349 11.6565 0.447306 11.4309 0.270332 11.1496C0.0933589 10.8682 -0.000307738 10.5424 0.000173569 10.21Z" fill="black"/>
</svg>
